<?xml version="1.0" encoding="utf-8"?>
<!-- Generator: Adobe Illustrator 25.2.1, SVG Export Plug-In . SVG Version: 6.00 Build 0)  -->
<svg version="1.1" id="Camada_1" xmlns="http://www.w3.org/2000/svg" xmlns:xlink="http://www.w3.org/1999/xlink" x="0px" y="0px"
	 viewBox="0 0 595.3 841.9" style="enable-background:new 0 0 595.3 841.9;" xml:space="preserve">
<style type="text/css">
	.st0{stroke:#000000;stroke-width:25;stroke-miterlimit:10;}
	.st1{fill:none;stroke:#000000;stroke-width:25;stroke-miterlimit:10;}
	.st2{fill:none;stroke:#000000;stroke-width:26;stroke-miterlimit:10;}
	.st3{fill:none;stroke:#000000;stroke-width:26;stroke-miterlimit:10.0002;}
</style>
<path class="st0" d="M-1175,225.8c-48-48-125.8-48-173.8,0s-48,125.8,0,173.8c45.7,45.7,118.3,47.9,166.6,6.6l115.6,115.6l13.8-13.8
	l-115.6-115.6C-1127.2,344.1-1129.4,271.4-1175,225.8z M-1189.3,385.3c-40.1,40.1-105.2,40.1-145.3,0c-40.1-40.1-40.1-105.2,0-145.3
	s105.2-40.1,145.3,0S-1149.2,345.2-1189.3,385.3z"/>
<image style="overflow:visible;enable-background:new    ;" width="125" height="51" xlink:href="7ED60064.jpg"  transform="matrix(0.9705 0 0 0.9705 894.0621 -302.3874)">
</image>
<image style="overflow:visible;enable-background:new    ;" width="41" height="34" xlink:href="7ED60065.jpg"  transform="matrix(0.9441 0 0 0.9441 846.3356 -285.1876)">
</image>
<g id="XMLID_1_">
	<g>
		<path d="M1530.5,653.8c11.7,9.9,26.9,19.7,11.6,19.7h-107.5v39h-31.7v-39h-107.5c-15.3,0-4.9-8.4,6.8-18.3l20-8
			c1.4-1.2,2.9-2.1,4.6-2.7h183.8c1.7,0.7,3.2,1.6,4.6,2.7L1530.5,653.8z"/>
		<path d="M1446.9,465.2l-59.2,0.6c2.1-0.5,4.2-0.9,6.4-1.2v-10c0-6.8,2.8-12.9,7.2-17.4c4.5-4.5,10.6-7.2,17.4-7.2
			c13.6,0,24.6,11,24.6,24.6v10C1444.5,464.8,1445.7,465,1446.9,465.2z"/>
		<path d="M1434.6,712.5c7.2,2.8,12.3,9.7,12.3,17.9c0,10.6-8.6,19.2-19.1,19.2h-18.1c-10.6,0-19.2-8.6-19.2-19.2
			c0-8.2,5.1-15.1,12.3-17.9H1434.6L1434.6,712.5z"/>
	</g>
	<g>
		<path class="st1" d="M1434.6,712.5v-39h107.5c15.3,0,0.1-9.9-11.6-19.7l-15.3-6.5c-1.4-1.2-2.9-2.1-4.6-2.7V541.9
			c0-38.2-27.5-69.9-63.7-76.6c-1.2-0.2-2.4-0.4-3.6-0.6v-10c0-13.6-11-24.6-24.6-24.6c-6.8,0-12.9,2.8-17.4,7.2
			c-4.5,4.5-7.2,10.6-7.2,17.4v10c-2.2,0.3-4.3,0.7-6.4,1.2c-34.8,7.8-60.9,38.9-60.9,76.1v102.6c-1.7,0.7-3.2,1.6-4.6,2.7l-20,8
			c-11.7,9.9-22.1,18.3-6.8,18.3h107.5v39c-7.2,2.8-12.3,9.7-12.3,17.9c0,10.6,8.6,19.2,19.2,19.2h18.1c10.6,0,19.1-8.6,19.1-19.2
			C1446.9,722.2,1441.8,715.3,1434.6,712.5z"/>
		<line class="st1" x1="1402.8" y1="712.5" x2="1434.6" y2="712.5"/>
		<line class="st1" x1="1326.8" y1="644.5" x2="1510.6" y2="644.5"/>
		<line class="st1" x1="1387.7" y1="465.8" x2="1446.9" y2="465.2"/>
	</g>
</g>
<polygon class="st1" points="-559.9,360.8 -462,294.6 -590.9,289.5 -629.8,165.1 -672.2,291.4 -798.6,302.3 -697.7,367.5 
	-733.4,508.6 -628,420.4 -508.5,500.8 "/>
<ellipse class="st1" cx="1677.3" cy="351.2" rx="153.9" ry="76.6"/>
<circle class="st1" cx="1677.3" cy="351.2" r="59.8"/>
<ellipse transform="matrix(0.1602 -0.9871 0.9871 0.1602 615.826 1195.0167)" class="st2" cx="1010.2" cy="235.6" rx="35" ry="35"/>
<circle class="st2" cx="1259.1" cy="235.6" r="35"/>
<ellipse class="st3" cx="1134.6" cy="476.6" rx="35" ry="35"/>
<path class="st2" d="M1010.2,270.5c0,0,31.1,67.6,110.1,174.2"/>
<path class="st2" d="M1259.1,270.5c0,0-30.1,67.6-110.1,174.2"/>
<image style="overflow:visible;" width="36" height="414" xlink:href="B3E086A7.jpg"  transform="matrix(1 0 0 1 -308.8387 129.85)">
</image>
<polygon points="1084.9,-95.1 910.8,-269.1 736.7,-95.1 794.3,-96.6 794.3,66.7 886.4,66.7 886.4,-21.7 935.2,-21.7 935.2,66.7 
	1027.3,66.7 1027.3,-96.6 "/>
<path class="st1" d="M-459.2-124.9h-324c-26,0-47-21.1-47-47v-211.4c0-26,21.1-47,47-47h324c26,0,47,21.1,47,47V-172
	C-412.2-146-433.3-124.9-459.2-124.9z"/>
<circle class="st1" cx="-706.3" cy="-328.5" r="43.8"/>
<path class="st1" d="M-650-169.5h-112.6v-51.9c0-31.1,25.2-56.3,56.3-56.3h0c31.1,0,56.3,25.2,56.3,56.3V-169.5z"/>
<rect x="-603.8" y="-328.5" class="st1" width="151" height="0"/>
<rect x="-578.3" y="-275" class="st1" width="96.4" height="2.6"/>
<path d="M1304.1,1025.9l73.5,66.1l1-132.3C1370.3,983,1330.3,1014,1304.1,1025.9z"/>
<path class="st1" d="M1304.9,1022.1H984.4c-35.9,0-65-29.1-65-65V844c0-35.9,29.1-65,65-65h320.5c35.9,0,65,29.1,65,65V957
	C1369.9,992.9,1340.8,1022.1,1304.9,1022.1z"/>
<circle class="st1" cx="-557.1" cy="1116.8" r="170.7"/>
<rect x="-557.1" y="1003.4" class="st1" width="0" height="113.5"/>
<rect x="-569.7" y="1117" class="st1" width="141.8" height="0"/>
<polyline class="st1" points="-1473.6,785.2 -1473.6,1188.5 -1122.1,1188.5 "/>
<polygon class="st1" points="-1444.2,731 -1444.2,1150.7 -1100.5,1150.7 -1100.5,890.5 -1259.9,731 "/>
<polygon class="st1" points="-1249.1,785.2 -1148.8,885.5 -1249.1,885.5 "/>
<path class="st1" d="M394.1-468.3H196.7v-132.4c0-35.9,29.1-65,65-65h67.4c35.9,0,65,29.1,65,65V-468.3z"/>
<circle class="st1" cx="295.4" cy="-743.5" r="55.7"/>
<circle class="st1" cx="416.2" cy="-698.2" r="32.5"/>
<circle class="st1" cx="174.1" cy="-698.2" r="32.5"/>
<path class="st1" d="M192.3-643.7c0,0-71.7,0-71.7,32.5v104.8h71.7C192.3-506.4,173.7-600.3,192.3-643.7z"/>
<path class="st1" d="M398.6-643.7c0,0,71.7,0,71.7,32.5v104.8h-71.7C398.6-506.4,417.1-600.3,398.6-643.7z"/>
<path class="st1" d="M99.3-677.7"/>
<circle class="st1" cx="297.6" cy="396.1" r="50"/>
<rect x="256" y="206.7" class="st1" width="83.3" height="83.3"/>
<rect x="107.9" y="361.4" class="st1" width="83.3" height="83.3"/>
<rect x="256" y="508.1" class="st1" width="83.3" height="83.3"/>
<rect x="410.5" y="357.8" class="st1" width="83.3" height="83.3"/>
<rect x="368.8" y="462.6" transform="matrix(0.7071 0.7071 -0.7071 0.7071 476.7865 -142.544)" class="st1" width="83.3" height="83.3"/>
<rect x="152.3" y="468.2" transform="matrix(0.7071 0.7071 -0.7071 0.7071 417.3392 12.2072)" class="st1" width="83.3" height="83.3"/>
<rect x="147.1" y="260.2" transform="matrix(0.7071 0.7071 -0.7071 0.7071 268.7217 -45.0419)" class="st1" width="83.3" height="83.3"/>
<rect x="368.8" y="260.2" transform="matrix(0.7071 -0.7071 0.7071 0.7071 -93.2229 378.6497)" class="st1" width="83.3" height="83.3"/>
</svg>
