<?xml version="1.0" encoding="utf-8"?>
<!-- Generator: Adobe Illustrator 25.2.1, SVG Export Plug-In . SVG Version: 6.00 Build 0)  -->
<svg version="1.1" id="Camada_1" xmlns="http://www.w3.org/2000/svg" xmlns:xlink="http://www.w3.org/1999/xlink" x="0px" y="0px"
	 viewBox="0 0 595.3 841.9" style="enable-background:new 0 0 595.3 841.9;" xml:space="preserve">
<style type="text/css">
	.st0{stroke:#000000;stroke-width:25;stroke-miterlimit:10;}
	.st1{fill:none;stroke:#000000;stroke-width:25;stroke-miterlimit:10;}
	.st2{fill:none;stroke:#000000;stroke-width:26;stroke-miterlimit:10;}
	.st3{fill:none;stroke:#000000;stroke-width:26;stroke-miterlimit:10.0002;}
</style>
<path class="st0" d="M353.3,1123.8c-48-48-125.8-48-173.8,0s-48,125.8,0,173.8c45.7,45.7,118.3,47.9,166.6,6.6l115.6,115.6
	l13.8-13.8l-115.6-115.6C401.1,1242.1,398.9,1169.4,353.3,1123.8z M339,1283.3c-40.1,40.1-105.2,40.1-145.3,0
	c-40.1-40.1-40.1-105.2,0-145.3s105.2-40.1,145.3,0S379.1,1243.2,339,1283.3z"/>
<image style="overflow:visible;enable-background:new    ;" width="125" height="51" xlink:href="7ED60064.jpg"  transform="matrix(0.9705 0 0 0.9705 894.0621 -302.3874)">
</image>
<image style="overflow:visible;enable-background:new    ;" width="41" height="34" xlink:href="7ED60065.jpg"  transform="matrix(0.9441 0 0 0.9441 846.3356 -285.1876)">
</image>
<g id="XMLID_1_">
	<g>
		<path d="M-610.4,141.9c11.7,9.9,26.9,19.7,11.6,19.7h-107.5v39H-738v-39h-107.5c-15.3,0-4.9-8.4,6.8-18.3l20-8
			c1.4-1.2,2.9-2.1,4.6-2.7h183.8c1.7,0.7,3.2,1.6,4.6,2.7L-610.4,141.9z"/>
		<path d="M-694-46.7l-59.2,0.6c2.1-0.5,4.2-0.9,6.4-1.2v-10c0-6.8,2.8-12.9,7.2-17.4c4.5-4.5,10.6-7.2,17.4-7.2
			c13.6,0,24.6,11,24.6,24.6v10C-696.4-47.1-695.2-46.9-694-46.7z"/>
		<path d="M-706.3,200.6c7.2,2.8,12.3,9.7,12.3,17.9c0,10.6-8.6,19.2-19.1,19.2h-18.1c-10.6,0-19.2-8.6-19.2-19.2
			c0-8.2,5.1-15.1,12.3-17.9H-706.3L-706.3,200.6z"/>
	</g>
	<g>
		<path class="st1" d="M-706.3,200.6v-39h107.5c15.3,0,0.1-9.9-11.6-19.7l-15.3-6.5c-1.4-1.2-2.9-2.1-4.6-2.7V30
			c0-38.2-27.5-69.9-63.7-76.6c-1.2-0.2-2.4-0.4-3.6-0.6v-10c0-13.6-11-24.6-24.6-24.6c-6.8,0-12.9,2.8-17.4,7.2
			c-4.5,4.5-7.2,10.6-7.2,17.4v10c-2.2,0.3-4.3,0.7-6.4,1.2c-34.8,7.8-60.9,38.9-60.9,76.1v102.6c-1.7,0.7-3.2,1.6-4.6,2.7l-20,8
			c-11.7,9.9-22.1,18.3-6.8,18.3H-738v39c-7.2,2.8-12.3,9.7-12.3,17.9c0,10.6,8.6,19.2,19.2,19.2h18.1c10.6,0,19.1-8.6,19.1-19.2
			C-694,210.3-699.1,203.4-706.3,200.6z"/>
		<line class="st1" x1="-738.1" y1="200.6" x2="-706.3" y2="200.6"/>
		<line class="st1" x1="-814.1" y1="132.6" x2="-630.3" y2="132.6"/>
		<line class="st1" x1="-753.2" y1="-46.1" x2="-694" y2="-46.7"/>
	</g>
</g>
<polygon class="st1" points="362.6,360.8 460.5,294.6 331.6,289.5 292.8,165.1 250.3,291.4 123.9,302.3 224.8,367.5 189.1,508.6 
	294.5,420.4 414,500.8 "/>
<ellipse class="st1" cx="1723.6" cy="351.2" rx="153.9" ry="76.6"/>
<circle class="st1" cx="1723.6" cy="351.2" r="59.8"/>
<polygon points="1916.3,347.6 1834.7,347.6 1834.7,270.7 1814.2,270.7 1814.2,347.6 1732.6,347.6 1732.6,368.1 1814.2,368.1 
	1814.2,444.5 1834.7,444.5 1834.7,368.1 1916.3,368.1 "/>
<circle class="st2" cx="1010.2" cy="235.6" r="35"/>
<circle class="st2" cx="1259.1" cy="235.6" r="35"/>
<ellipse class="st3" cx="1134.6" cy="476.6" rx="35" ry="35"/>
<path class="st2" d="M1010.2,270.5c0,0,31.1,67.6,110.1,174.2"/>
<path class="st2" d="M1259.1,270.5c0,0-30.1,67.6-110.1,174.2"/>
</svg>
