<?xml version="1.0" encoding="utf-8"?>
<!-- Generator: Adobe Illustrator 25.2.1, SVG Export Plug-In . SVG Version: 6.00 Build 0)  -->
<svg version="1.1" id="Camada_1" xmlns="http://www.w3.org/2000/svg" xmlns:xlink="http://www.w3.org/1999/xlink" x="0px" y="0px"
	 viewBox="0 0 595.3 841.9" style="enable-background:new 0 0 595.3 841.9;" xml:space="preserve">
<style type="text/css">
	.st0{fill:#FFFFFF;stroke:#000000;stroke-width:4;stroke-miterlimit:10;}
	.st1{fill:#010202;}
</style>
<path class="st0" d="M377.5,470.9H181.8V227.4h195.7c26.4,0,47.8,21.4,47.8,47.8v147.9C425.3,449.5,403.9,470.9,377.5,470.9z"/>
<rect x="154" y="258.4" class="st0" width="46.5" height="13.9"/>
<rect x="154" y="301" class="st0" width="46.5" height="13.9"/>
<rect x="154" y="343.5" class="st0" width="46.5" height="13.9"/>
<rect x="154" y="386.1" class="st0" width="46.5" height="13.9"/>
<rect x="154" y="428.7" class="st0" width="46.5" height="13.9"/>
<rect x="238.5" y="268.5" class="st1" width="130.1" height="7.7"/>
<rect x="238.5" y="293.2" class="st1" width="130.1" height="7.7"/>
<rect x="238.5" y="318" class="st1" width="130.1" height="7.7"/>
<rect x="238.5" y="342.8" class="st1" width="130.1" height="7.7"/>
<rect x="238.5" y="367.5" class="st1" width="130.1" height="7.7"/>
<rect x="238.5" y="392.3" class="st1" width="130.1" height="7.7"/>
<rect x="238.5" y="417.1" class="st1" width="130.1" height="7.7"/>
</svg>
