<?xml version="1.0" encoding="utf-8"?>
<!-- Generator: Adobe Illustrator 25.2.1, SVG Export Plug-In . SVG Version: 6.00 Build 0)  -->
<svg version="1.1" id="Camada_1" xmlns="http://www.w3.org/2000/svg" xmlns:xlink="http://www.w3.org/1999/xlink" x="0px" y="0px"
	 viewBox="0 0 595.3 841.9" style="enable-background:new 0 0 595.3 841.9;" xml:space="preserve">
<style type="text/css">
	.st0{fill:none;stroke:#000000;stroke-width:25;stroke-miterlimit:10;}
	.st1{stroke:#FFFFFF;stroke-width:5;stroke-miterlimit:10;}
	.st2{stroke:#FFFFFF;stroke-width:6;stroke-miterlimit:10;}
	.st3{fill:#FFFFFF;stroke:#000000;stroke-width:26;stroke-miterlimit:10;}
	.st4{fill:#FFFFFF;stroke:#000000;stroke-width:26;stroke-miterlimit:10.0002;}
</style>
<path d="M817.9-102.6c-35.1-35.1-91.9-35.1-127,0c-35.1,35.1-35.1,91.9,0,127c33.4,33.4,86.5,35,121.8,4.8l84.5,84.5l10.1-10.1
	l-84.5-84.5C852.9-16.1,851.3-69.2,817.9-102.6z M807.5,14c-29.3,29.3-76.9,29.3-106.2,0s-29.3-76.9,0-106.2s76.9-29.3,106.2,0
	S836.8-15.3,807.5,14z"/>
<image style="overflow:visible;enable-background:new    ;" width="124" height="50" xlink:href="2139E7EB.jpeg"  transform="matrix(0.98 0 0 0.98 434.6271 -63.5579)">
</image>
<image style="overflow:visible;enable-background:new    ;" width="40" height="33" xlink:href="2139E7E9.jpeg"  transform="matrix(0.9697 0 0 0.9697 386.9608 -46.5579)">
</image>
<g id="XMLID_1_">
	<g>
		<path d="M410,400.9c11.7,9.9,26.9,19.7,11.6,19.7H314.1v39h-31.7v-39H174.9c-15.3,0-4.9-8.4,6.8-18.3l20-8
			c1.4-1.2,2.9-2.1,4.6-2.7h183.8c1.7,0.7,3.2,1.6,4.6,2.7L410,400.9z"/>
		<path d="M326.5,212.3l-59.2,0.6c2.1-0.5,4.2-0.9,6.4-1.2v-10c0-6.8,2.8-12.9,7.2-17.4c4.5-4.5,10.6-7.2,17.4-7.2
			c13.6,0,24.6,11,24.6,24.6v10C324.1,211.9,325.3,212.1,326.5,212.3z"/>
		<path d="M314.1,459.6c7.2,2.8,12.3,9.7,12.3,17.9c0,10.6-8.6,19.2-19.1,19.2h-18.1c-10.6,0-19.2-8.6-19.2-19.2
			c0-8.2,5.1-15.1,12.3-17.9H314.1L314.1,459.6z"/>
	</g>
	<g>
		<path class="st0" d="M314.1,459.6v-39h107.5c15.3,0,0.1-9.9-11.6-19.7l-15.3-6.5c-1.4-1.2-2.9-2.1-4.6-2.7V289
			c0-38.2-27.5-69.9-63.7-76.6c-1.2-0.2-2.4-0.4-3.6-0.6v-10c0-13.6-11-24.6-24.6-24.6c-6.8,0-12.9,2.8-17.4,7.2
			c-4.5,4.5-7.2,10.6-7.2,17.4v10c-2.2,0.3-4.3,0.7-6.4,1.2c-34.8,7.8-60.9,38.9-60.9,76.1v102.6c-1.7,0.7-3.2,1.6-4.6,2.7l-20,8
			c-11.7,9.9-22.1,18.3-6.8,18.3h107.5v39c-7.2,2.8-12.3,9.7-12.3,17.9c0,10.6,8.6,19.2,19.2,19.2h18.1c10.6,0,19.1-8.6,19.1-19.2
			C326.4,469.3,321.3,462.4,314.1,459.6z"/>
		<line class="st0" x1="282.4" y1="459.6" x2="314.1" y2="459.6"/>
		<line class="st0" x1="206.3" y1="391.6" x2="390.2" y2="391.6"/>
		<line class="st0" x1="267.2" y1="212.9" x2="326.5" y2="212.3"/>
	</g>
</g>
<polygon class="st0" points="-334.8,360.8 -236.8,294.6 -365.8,289.5 -404.6,165.1 -447,291.4 -573.4,302.3 -472.6,367.5 
	-508.3,508.6 -402.8,420.4 -283.3,500.8 "/>
<polygon class="st1" points="-202.3,449.5 -284,449.5 -284,372.5 -304.4,372.5 -304.4,449.5 -386.1,449.5 -386.1,469.9 
	-304.4,469.9 -304.4,546.3 -284,546.3 -284,469.9 -202.3,469.9 "/>
<ellipse class="st0" cx="-256.3" cy="716.1" rx="153.9" ry="76.6"/>
<circle class="st0" cx="-256.3" cy="716.1" r="59.8"/>
<polygon class="st2" points="-63.5,712.5 -145.2,712.5 -145.2,635.6 -165.6,635.6 -165.6,712.5 -247.3,712.5 -247.3,733 -165.6,733 
	-165.6,809.4 -145.2,809.4 -145.2,733 -63.5,733 "/>
<circle class="st3" cx="742.4" cy="275.2" r="30.8"/>
<circle class="st3" cx="961.7" cy="275.2" r="30.8"/>
<ellipse class="st4" cx="852.1" cy="487.5" rx="30.8" ry="30.8"/>
<path class="st3" d="M742.4,306c0,0,27.4,59.5,97,153.4"/>
<path class="st3" d="M961.7,306c0,0-26.5,59.5-97,153.4"/>
</svg>
